<svg width="740" height="248" viewBox="0 0 740 248" fill="none" xmlns="http://www.w3.org/2000/svg">
<path fill-rule="evenodd" clip-rule="evenodd" d="M172.441 10.0295C127.337 -9.35207 73.0375 -0.64311 36.1969 36.1564C-12.0656 84.3649 -12.0656 162.643 36.1969 210.905C84.4593 259.168 162.683 259.168 210.946 210.905C257.154 164.697 259.121 91.0237 216.846 42.4774C214.968 40.3195 213.002 38.2113 210.948 36.1574C199.523 24.7322 186.422 16.0258 172.441 10.0295ZM124.632 43.3432C103.747 43.0709 82.7836 50.8964 66.8603 66.8198C35.549 98.185 35.549 148.985 66.8603 180.296C98.2255 211.607 149.025 211.607 180.336 180.296C196.249 164.356 204.075 143.396 203.814 122.525L124.632 43.3432ZM430.499 5.87196V148.824V148.932L274.807 5.87196H269.948V53.8105V60.8825V242.488H315.242V102.397V101.695L470.988 242.488H475.793V202.269V190.338V5.87196H430.499ZM554.99 5.87196H507.16L570.7 103.693L491.288 242.326H540.36L618.639 104.124L554.99 5.87196ZM724.128 242.326H676.298L612.596 144.127L690.928 5.87196H740L660.588 144.505L724.128 242.326Z" fill="#1C1B1B"/>
</svg>
