<svg width="764" height="247" viewBox="0 0 764 247" fill="none" xmlns="http://www.w3.org/2000/svg">
<path d="M210.673 36.1468C222.133 47.6065 231.223 61.2111 237.425 76.1838C243.627 91.1566 246.819 107.204 246.819 123.411C246.819 139.617 243.627 155.665 237.425 170.637C231.223 185.61 222.133 199.215 210.673 210.674C199.214 222.134 185.609 231.224 170.636 237.426C155.664 243.628 139.616 246.82 123.41 246.82C107.203 246.82 91.1555 243.628 76.1827 237.426C61.21 231.224 47.6054 222.134 36.1458 210.674L210.673 36.1468Z" fill="#3EA9F9"/>
<path d="M36.1458 210.674C24.6861 199.215 15.5959 185.61 9.394 170.637C3.19208 155.665 -3.54202e-07 139.617 0 123.411C3.54202e-07 107.204 3.19209 91.1566 9.394 76.1838C15.5959 61.2111 24.6862 47.6065 36.1459 36.1468C47.6055 24.6872 61.2101 15.5969 76.1828 9.39498C91.1556 3.19306 107.203 0.0009755 123.41 0.000976562C139.616 0.000977625 155.664 3.19306 170.637 9.39498C185.609 15.5969 199.214 24.6872 210.673 36.1468L36.1458 210.674Z" fill="#0D5FF9"/>
<path d="M656.426 185.115L549.55 0H763.302L656.426 185.115Z" fill="#3EA9F9"/>
<path d="M656.426 61.7048L763.302 246.819H549.55L656.426 61.7048Z" fill="#0D5FF9"/>
<path d="M656.426 185.115L549.55 0H763.302L656.426 185.115Z" fill="#3EA9F9" fill-opacity="0.5"/>
<rect x="422.642" y="0.000976562" width="98.7277" height="246.819" fill="#3EA9F9"/>
<path d="M274.55 0.000976562L521.369 246.82H274.55V0.000976562Z" fill="#0D5FF9"/>
<rect x="422.642" y="0.000976562" width="98.7277" height="246.819" fill="#3EA9F9" fill-opacity="0.5"/>
</svg>
