<svg width="76" height="25" viewBox="0 0 76 25" fill="none" xmlns="http://www.w3.org/2000/svg">
<g clip-path="url(#clip0_61_300)">
<path d="M12.9093 0.639751C17.6413 2.71823 15.696 9.38469 12.7974 12.2719C14.5201 9.38426 11.9516 7.2676 9.56971 7.35069C5.20819 7.50283 6.14027 13.3926 7.68588 15.9332C11.7379 22.5938 24.1524 23.1514 30.0694 19.437C24.6862 23.4161 19.0462 25.0184 14.3025 24.7533C3.15396 24.1303 -5.93464 9.89471 4.99116 1.70704C7.29413 -0.0187912 10.2384 -0.533451 12.9093 0.639751Z" fill="url(#paint0_linear_61_300)"/>
<path d="M9.56969 7.48061C11.686 7.36234 13.9901 8.94882 13.3933 11.2729C13.4368 11.4281 13.4661 11.5893 13.48 11.7561C14.7169 10.2799 15.6885 8.16905 15.8859 6.15367C15.7074 4.49622 14.8648 3.04028 13.0336 2.25093C10.3316 1.08621 7.35312 1.59714 5.02338 3.31049C2.84089 4.91554 1.44785 6.7547 0.704422 8.67767C-0.11019 10.7848 0.00859475 12.772 0.80477 14.8714C2.77702 20.0718 8.30096 24.4167 14.443 24.7534C17.4295 24.9172 20.7673 24.363 24.1751 22.9688C17.9479 23.8348 10.4385 22.1421 7.59338 17.1719C6.073 14.516 4.99591 7.73619 9.56969 7.48061Z" fill="url(#paint1_linear_61_300)"/>
<path d="M25.204 8.48156C25.0527 8.24317 24.6217 8.13998 24.5606 8.26452C24.4993 8.38904 24.3713 8.32501 24.3713 8.32501C24.1529 8.05816 23.9142 8.1222 23.9142 8.1222C23.1426 7.6312 22.7408 7.99411 22.7408 7.99411C22.7408 7.99411 22.1176 7.96564 22.0303 8.11153C21.943 8.2574 21.8032 8.24673 21.8032 8.24673C21.2384 7.97988 20.886 8.1898 20.886 8.1898C20.886 8.1898 20.7754 8.33212 20.6589 8.26808C20.5425 8.20047 20.621 7.99055 20.621 7.99055C20.8161 7.65611 20.621 7.40705 20.621 7.40705C20.589 6.94806 20.4725 6.79507 20.4725 6.79507C20.4725 6.79507 20.2367 6.37523 19.6806 6.4891C19.1274 6.59939 19.1419 7.23982 19.1419 7.23982C19.1419 7.23982 19.2292 7.48888 19.1885 7.7664C19.1507 8.04392 19.1885 8.04392 19.2205 8.20759C19.2525 8.37125 19.3225 8.42818 19.3225 8.42818V8.58829C19.3225 8.58829 19.3079 8.66657 18.7808 8.85514C18.2568 9.04727 17.8345 9.82291 17.8345 9.82291C17.8345 9.82291 17.3716 10.6163 16.9115 11.2781C16.4487 11.9399 16.7165 12.4024 16.7165 12.4024C16.4865 12.6088 16.6437 13.5482 16.6437 13.5482C16.6437 13.5482 16.8504 15.3164 16.7456 15.4374C16.6408 15.5548 16.6378 15.7185 16.6116 16.0921C16.5884 16.4656 16.702 16.3839 16.702 16.3839C16.7253 16.455 16.7747 16.4515 16.7747 16.4515C16.8155 16.5546 16.932 16.5475 16.932 16.5475C17.0542 16.6507 17.0397 16.5404 17.0397 16.5404C17.0833 16.7751 17.3512 17.0705 17.2377 16.5688C17.1241 16.0672 17.2668 15.939 17.2668 15.939C17.2028 16.3447 17.4299 16.5368 17.4095 16.3091C17.3861 16.0814 17.4386 15.9213 17.4386 15.9213C17.6949 15.3733 17.4154 16.0031 17.2726 14.9749C17.1328 13.943 17.3192 13.7438 17.3192 13.7438C17.9394 14.5728 18.2189 14.5407 18.2189 14.5407L18.3179 14.4304C18.7284 14.4767 18.5595 14.7222 18.5595 14.7222C17.5172 15.747 17.8345 17.7144 17.4794 17.8923C17.1241 18.0702 17.2202 18.3869 17.2202 18.3869L17.2668 18.6075C16.4749 19.2302 13.4583 22.6209 13.4583 22.6209C14.6725 22.6779 16.734 22.3861 19.6631 19.3938C22.5922 16.4016 24.0102 13.4378 22.93 13.8754C21.8497 14.3167 19.931 16.3803 19.931 16.3803C19.931 16.3803 20.0737 16.0102 20.7288 15.3413C21.3839 14.6724 21.1393 14.2811 21.1393 14.2811C21.1422 14.2704 20.9676 13.968 20.9676 13.968C20.6327 13.1389 19.899 12.3348 19.5 12.0217C19.0983 11.7086 19.2816 11.5556 19.2816 11.5556C19.538 11.2176 19.7097 11.0646 19.7097 11.0646C20.1581 10.9366 20.6531 9.97947 20.6531 9.97947C20.9587 9.72329 21.2908 9.06862 21.2908 9.06862C21.7013 9.07929 21.6517 9.04371 22.0827 8.97611C22.5107 8.90496 22.8922 8.65589 22.8922 8.65589C23.1077 8.71994 23.8356 8.64522 23.8356 8.64522C24.0509 8.816 24.086 8.89428 24.086 8.89428C24.4033 9.53116 24.4958 9.05883 24.4783 9.00902C24.4638 8.9592 24.3451 8.76619 24.4411 8.86937C24.5373 8.97255 24.6012 9.01525 24.6624 8.93698C24.7265 8.8587 24.6507 8.80533 24.6507 8.80533C24.6507 8.80533 24.3859 8.68436 24.5868 8.65945C24.7906 8.63455 24.9065 8.90477 24.9269 8.78379C24.9472 8.66283 24.7848 8.51358 24.7848 8.51358C25.0788 8.52425 25.3554 8.71994 25.204 8.48156ZM19.4418 13.9394C19.4418 13.9394 19.7679 14.5016 19.9368 14.6333C19.9368 14.6333 19.634 14.989 19.6107 15.6829C19.6107 15.6829 19.5496 15.9355 19.404 15.8963C19.2583 15.8607 19.2031 16.3161 19.3516 16.7751C19.3516 16.7751 18.5333 17.4263 18.0762 17.8533C18.0762 17.8533 18.2829 16.7325 19.2234 15.2097C19.2234 15.2097 19.7184 14.6654 19.4418 13.9394Z" fill="black"/>
<path fill-rule="evenodd" clip-rule="evenodd" d="M24.1328 9.44568C24.0386 9.32906 24.0525 9.16093 24.1639 9.07013L24.8364 8.52217C24.9479 8.43139 25.1146 8.45233 25.2088 8.56894L25.3983 8.80356L26.0486 8.23129C26.1352 8.16068 26.2648 8.17696 26.3381 8.26766L27.7155 9.86773C27.7888 9.95843 27.7779 10.0892 27.6913 10.1598L25.2926 12.1994C25.2058 12.27 25.0762 12.2537 25.0029 12.163L23.6256 10.5629C23.5523 10.4722 23.5631 10.3414 23.6498 10.2708L24.3224 9.68029L24.1328 9.44568ZM25.2639 8.91315L24.4569 9.5707L24.2863 9.35955C24.2443 9.30771 24.2506 9.23299 24.3002 9.19265L24.9278 8.68121C24.9773 8.64086 25.0513 8.65016 25.0933 8.702L25.2639 8.91315Z" fill="black"/>
<path d="M35.0442 13.7388H33.4103V16.287H31.9568V8.21191H34.9878C35.3484 8.21191 35.6751 8.2459 35.9681 8.30252C36.2611 8.35915 36.5315 8.44976 36.7681 8.56301C37.2414 8.78952 37.5906 9.11797 37.8273 9.52568C38.0527 9.93341 38.1766 10.4091 38.1766 10.9527C38.1766 11.8021 37.9175 12.4817 37.3991 12.9913C36.8808 13.5009 36.1033 13.7501 35.0442 13.7388ZM34.9878 9.48038H33.4103V12.4704H35.0216C35.5512 12.4704 35.9681 12.3458 36.2611 12.0853C36.554 11.8248 36.7005 11.451 36.7005 10.9527C36.7005 10.5223 36.554 10.1599 36.2724 9.8881C35.9906 9.61629 35.5624 9.48038 34.9878 9.48038Z" fill="black"/>
<path d="M39.8361 9.07268C39.4755 9.07268 39.2277 9.00472 39.0811 8.8575C38.9234 8.72158 38.8558 8.46109 38.8558 8.08735C38.8558 7.72493 38.9347 7.47576 39.1037 7.32853C39.2614 7.19263 39.5093 7.11334 39.8361 7.11334C40.1516 7.11334 40.3995 7.19263 40.5685 7.32853C40.7262 7.47576 40.8164 7.72493 40.8164 8.08735C40.8164 8.43845 40.7262 8.6876 40.5685 8.84616C40.4107 9.00472 40.1628 9.07268 39.8361 9.07268ZM40.5685 16.287H39.0699V9.77486H40.5685V16.287Z" fill="black"/>
<path d="M44.915 15.1659C45.4558 15.1659 45.884 14.9959 46.1996 14.6448C46.5039 14.2938 46.6615 13.7955 46.6615 13.1499V13.014C46.6615 12.3231 46.4925 11.7908 46.177 11.4284C45.8615 11.066 45.4446 10.8848 44.9488 10.8848C44.408 10.8848 43.9798 11.0773 43.6643 11.4624C43.3375 11.8475 43.1798 12.3571 43.1798 12.9913V13.1046C43.1798 13.7388 43.3262 14.2372 43.6417 14.6109C43.9573 14.9847 44.3742 15.1659 44.915 15.1659ZM45.377 16.423C44.8361 16.423 44.3967 16.3098 44.0361 16.0832C43.6756 15.8568 43.3938 15.5396 43.2135 15.1433V18.5295H41.7826V9.77486H43.0107L43.1685 11.1C43.3375 10.6583 43.608 10.2958 43.991 10.024C44.3629 9.75221 44.8361 9.6163 45.3995 9.6163C46.2334 9.6163 46.9094 9.91077 47.4052 10.4997C47.9011 11.0886 48.1602 11.9267 48.1602 13.014V13.1725C48.1602 13.5349 48.1263 13.8634 48.07 14.1578C48.0024 14.4524 47.9123 14.7242 47.7996 14.962C47.563 15.4489 47.2363 15.8114 46.8193 16.0606C46.3912 16.3098 45.9179 16.423 45.377 16.423Z" fill="black"/>
<path d="M55.2781 14.3618C55.0865 15.0187 54.726 15.5396 54.2076 15.902C53.6892 16.2758 53.0019 16.457 52.1568 16.457C51.0638 16.457 50.2525 16.1626 49.7117 15.5736C49.1708 14.9847 48.9004 14.1806 48.9004 13.1725V13.014C48.9004 12.6742 48.9342 12.3458 49.0017 12.0513C49.0693 11.7568 49.1708 11.4737 49.306 11.2132C49.5765 10.7149 49.9483 10.3185 50.4441 10.0354C50.9398 9.76354 51.5258 9.6163 52.2019 9.6163C52.754 9.6163 53.2273 9.70691 53.633 9.88811C54.0385 10.0693 54.3654 10.3185 54.6245 10.6243C54.8724 10.9414 55.0639 11.2925 55.1879 11.6776C55.3006 12.074 55.3681 12.4817 55.3681 12.8894V13.5803H50.3652C50.4216 14.1126 50.6131 14.5202 50.9286 14.8034C51.2441 15.0979 51.6722 15.2339 52.2131 15.2339C52.5962 15.2339 52.9118 15.1659 53.1597 15.0073C53.3963 14.8601 53.5766 14.6448 53.6892 14.3618H55.2781ZM52.2131 10.7942C51.6949 10.7942 51.2892 10.9414 50.9737 11.2245C50.6582 11.5077 50.4553 11.9041 50.3765 12.4137H53.8921C53.8357 11.9154 53.6667 11.5303 53.3963 11.2359C53.1258 10.9414 52.7315 10.7942 52.2131 10.7942Z" fill="black"/>
<path d="M57.7401 16.2871H56.264V7.56638H57.7401V16.2871Z" fill="black"/>
<path d="M59.7209 9.07268C59.3603 9.07268 59.1125 9.00472 58.966 8.8575C58.8082 8.72158 58.7406 8.46109 58.7406 8.08735C58.7406 7.72493 58.8195 7.47576 58.9885 7.32853C59.1463 7.19263 59.3942 7.11334 59.7209 7.11334C60.0364 7.11334 60.2843 7.19263 60.4533 7.32853C60.6111 7.47576 60.7012 7.72493 60.7012 8.08735C60.7012 8.43845 60.6111 8.6876 60.4533 8.84616C60.2957 9.00472 60.0476 9.07268 59.7209 9.07268ZM60.4533 16.287H58.9547V9.77486H60.4533V16.287Z" fill="black"/>
<path d="M63.1433 12.8894V16.287H61.6558V9.77486H62.9066L63.0418 11.0773C63.2108 10.6356 63.4812 10.2845 63.853 10.0127C64.2136 9.75221 64.6757 9.6163 65.239 9.6163C66.0165 9.6163 66.6138 9.86547 67.0193 10.3411C67.425 10.8281 67.6392 11.4737 67.6392 12.2778V16.287H66.1517V12.6402C66.1517 12.1193 66.0503 11.7002 65.8475 11.3831C65.6447 11.066 65.2729 10.9074 64.7545 10.9074C64.2024 10.9074 63.7967 11.0886 63.5376 11.4511C63.2672 11.8135 63.1433 12.2891 63.1433 12.8894Z" fill="black"/>
<path d="M74.8767 14.3618C74.6852 15.0187 74.3246 15.5396 73.8064 15.902C73.288 16.2758 72.6007 16.457 71.7556 16.457C70.6626 16.457 69.8512 16.1626 69.3103 15.5736C68.7696 14.9847 68.4991 14.1806 68.4991 13.1725V13.014C68.4991 12.6742 68.5329 12.3458 68.6005 12.0513C68.6681 11.7568 68.7696 11.4737 68.9048 11.2132C69.1751 10.7149 69.547 10.3185 70.0427 10.0354C70.5386 9.76354 71.1245 9.6163 71.8005 9.6163C72.3528 9.6163 72.8259 9.70691 73.2316 9.88811C73.6373 10.0693 73.964 10.3185 74.2232 10.6243C74.471 10.9414 74.6627 11.2925 74.7867 11.6776C74.8993 12.074 74.9669 12.4817 74.9669 12.8894V13.5803H69.9639C70.0202 14.1126 70.2118 14.5202 70.5273 14.8034C70.8429 15.0979 71.271 15.2339 71.8119 15.2339C72.195 15.2339 72.5105 15.1659 72.7583 15.0073C72.995 14.8601 73.1753 14.6448 73.288 14.3618H74.8767ZM71.8119 10.7942C71.2935 10.7942 70.8878 10.9414 70.5724 11.2245C70.2569 11.5077 70.0541 11.9041 69.9751 12.4137H73.4908C73.4344 11.9154 73.2655 11.5303 72.995 11.2359C72.7246 10.9414 72.3302 10.7942 71.8119 10.7942Z" fill="black"/>
</g>
<defs>
<linearGradient id="paint0_linear_61_300" x1="15.0659" y1="0.00650052" x2="15.0659" y2="24.7813" gradientUnits="userSpaceOnUse">
<stop stop-color="#8FDEF4"/>
<stop offset="1" stop-color="#75CEE6"/>
</linearGradient>
<linearGradient id="paint1_linear_61_300" x1="12.1188" y1="1.62225" x2="12.1188" y2="24.7813" gradientUnits="userSpaceOnUse">
<stop stop-color="#40C3E7"/>
<stop offset="1" stop-color="#2CAFD3"/>
</linearGradient>
<clipPath id="clip0_61_300">
<rect width="75.1323" height="25" fill="white" transform="translate(0.0322876)"/>
</clipPath>
</defs>
</svg>
