<svg width="62" height="21" viewBox="0 0 62 21" fill="none" xmlns="http://www.w3.org/2000/svg">
<path d="M30.8006 2.87623C29.3041 1.48741 27.4253 0.759065 25.5118 0.820313C20.9944 0.974258 17.404 5.43537 17.5083 10.7672C17.5645 13.6624 18.6968 16.344 20.6137 18.1235C22.0455 19.4511 23.8399 20.1827 25.6674 20.1827C25.7452 20.1827 25.823 20.1827 25.9008 20.1794C30.4165 20.0271 34.0086 15.5627 33.9043 10.2292C33.848 7.33569 32.7158 4.65406 30.7989 2.87623H30.8006ZM25.8462 18.1367C24.4474 18.1897 23.1116 17.66 21.9843 16.6155C20.4581 15.2002 19.5576 13.0499 19.5129 10.7159C19.4318 6.50141 22.1465 2.97886 25.5664 2.86465C25.6243 2.86299 25.6823 2.86134 25.7402 2.86134C27.0794 2.86134 28.3556 3.38939 29.4316 4.38755C30.9578 5.80286 31.8583 7.95148 31.903 10.2838C31.9841 14.5 29.2677 18.0225 25.8478 18.1384L25.8462 18.1367Z" fill="#010101"/>
<path d="M17.8096 0.853715C17.7914 0.825574 17.7599 0.809021 17.7268 0.809021H15.651C15.6129 0.809021 15.5765 0.83054 15.5616 0.866958L15.3183 1.42315L8.46853 16.5727L3.09698 3.83165C3.08208 3.79524 3.04567 3.77206 3.00759 3.77206H0.983124C0.950017 3.77206 0.920221 3.78862 0.902013 3.8151C0.883804 3.84159 0.880493 3.87635 0.893736 3.90614L7.48195 19.5606L7.7137 20.1317C7.7286 20.1681 7.76501 20.1929 7.80474 20.1929H9.03465C9.07438 20.1929 9.10914 20.1698 9.12404 20.1334L9.36241 19.5788L17.1789 2.27233L17.8145 0.948069C17.8294 0.918273 17.8278 0.881856 17.8096 0.853715Z" fill="#010101"/>
<path d="M61.3298 20.0536L60.6975 18.7393L52.881 1.42947L52.6394 0.86666C52.6245 0.830243 52.5897 0.807068 52.55 0.807068H51.3201C51.2803 0.807068 51.2456 0.831898 51.2307 0.868315L44.4091 17.0939C44.3958 17.1237 44.3991 17.1584 44.4173 17.1849C44.4355 17.2114 44.4653 17.2279 44.4984 17.2279H46.5213C46.561 17.2279 46.5957 17.2048 46.6106 17.1684L51.9838 4.42728L55.8457 12.9142L52.4904 12.0451C52.4573 12.0368 52.4209 12.0451 52.3977 12.0699L50.8682 13.5978C50.8433 13.6226 50.8334 13.6591 50.8433 13.6922C50.8533 13.7253 50.8797 13.7518 50.9145 13.76L56.7644 15.1886L56.8605 15.2084L58.832 19.5686L59.0786 20.1297C59.0935 20.1645 59.1283 20.1877 59.168 20.1877H61.2438C61.2769 20.1877 61.3083 20.1695 61.3265 20.1413C61.3447 20.1132 61.3464 20.0768 61.3315 20.047L61.3298 20.0536Z" fill="#010101"/>
<path d="M46.8639 2.46901L47.8306 0.959351C47.8505 0.929555 47.8521 0.891482 47.8339 0.860031C47.8174 0.82858 47.7843 0.808716 47.7495 0.808716H45.5115C45.4784 0.808716 45.4469 0.823614 45.4287 0.851754L40.3783 8.506C40.3452 8.55732 40.2707 8.55566 40.2376 8.506L37.2067 3.80321C37.1885 3.77507 37.1587 3.75852 37.1256 3.75852H34.8992C34.8628 3.76017 34.8297 3.78003 34.8131 3.81149C34.7949 3.84294 34.7965 3.88101 34.8164 3.91081L39.2113 10.6927C39.2543 10.7589 39.2759 10.8351 39.2759 10.9129L39.2891 20.0867C39.2891 20.1397 39.3322 20.1827 39.3851 20.1844H41.2573C41.2838 20.1844 41.3086 20.1744 41.3268 20.1562C41.345 20.138 41.355 20.1132 41.355 20.0867L41.3417 10.9129C41.3417 10.8433 41.3616 10.7755 41.3997 10.7192L46.8589 2.47067L46.8639 2.46901Z" fill="#010101"/>
</svg>
