<svg width="184" height="36" viewBox="0 0 184 36" fill="none" xmlns="http://www.w3.org/2000/svg">
<g clip-path="url(#clip0_40_2)">
<path d="M54.1228 3.74363C51.4154 1.23096 48.0163 -0.0867708 44.5543 0.0240383C36.3813 0.302558 29.8855 8.37365 30.0742 18.02C30.176 23.258 32.2245 28.1096 35.6925 31.3291C38.2831 33.731 41.5295 35.0547 44.8358 35.0547C44.9765 35.0547 45.1173 35.0547 45.258 35.0487C53.428 34.7732 59.9268 26.6961 59.7381 17.0467C59.6363 11.8117 57.5878 6.96009 54.1198 3.74363H54.1228ZM45.1592 31.3531C42.6286 31.4489 40.2117 30.4905 38.1722 28.6008C35.411 26.0402 33.7818 22.1499 33.701 17.9272C33.5542 10.3023 38.4657 3.92931 44.6531 3.72267C44.7579 3.71967 44.8627 3.71668 44.9675 3.71668C47.3904 3.71668 49.6994 4.67203 51.646 6.47792C54.4073 9.03851 56.0365 12.9258 56.1173 17.1455C56.2641 24.7734 51.3495 31.1464 45.1622 31.3561L45.1592 31.3531Z" fill="#010101"/>
<path d="M30.6192 0.0837904C30.5863 0.0328781 30.5294 0.00292969 30.4695 0.00292969H26.714C26.6451 0.00292969 26.5792 0.0418626 26.5522 0.107749L26.112 1.11402L13.7194 28.5228L4.0011 5.47151C3.97415 5.40562 3.90826 5.36369 3.83938 5.36369H0.176691C0.116794 5.36369 0.0628871 5.39364 0.0299438 5.44156C-0.00299942 5.48948 -0.0089891 5.55237 0.0149696 5.60628L11.9344 33.9285L12.3537 34.9617C12.3807 35.0276 12.4466 35.0725 12.5184 35.0725H14.7436C14.8155 35.0725 14.8784 35.0306 14.9053 34.9647L15.3366 33.9614L29.4782 2.65037L30.6282 0.254496C30.6552 0.200589 30.6522 0.134703 30.6192 0.0837904Z" fill="#010101"/>
<path d="M109.357 34.821L108.213 32.4431L94.0709 1.12606L93.6337 0.107814C93.6067 0.0419278 93.5438 0 93.472 0H91.2468C91.1749 0 91.112 0.0449226 91.0851 0.110809L78.7433 29.4662C78.7194 29.5201 78.7254 29.583 78.7583 29.6309C78.7913 29.6789 78.8452 29.7088 78.9051 29.7088H82.5647C82.6366 29.7088 82.6995 29.6669 82.7265 29.601L92.4477 6.54972L99.4347 21.9043L93.3641 20.332C93.3042 20.317 93.2384 20.332 93.1964 20.3769L90.4292 23.1411C90.3843 23.186 90.3663 23.2519 90.3843 23.3118C90.4022 23.3717 90.4502 23.4196 90.5131 23.4346L101.097 26.0192L101.271 26.0551L104.837 33.9435L105.284 34.9588C105.311 35.0217 105.373 35.0636 105.445 35.0636H109.201C109.261 35.0636 109.318 35.0306 109.351 34.9797C109.384 34.9288 109.387 34.8629 109.36 34.809L109.357 34.821Z" fill="#010101"/>
<path d="M83.1847 3.00675L84.9337 0.27546C84.9696 0.221553 84.9726 0.152672 84.9397 0.0957697C84.9097 0.0388678 84.8498 0.00292969 84.7869 0.00292969H80.7379C80.678 0.00292969 80.6211 0.0298833 80.5882 0.0807955L71.4509 13.9289C71.391 14.0218 71.2562 14.0188 71.1963 13.9289L65.7128 5.4206C65.6799 5.36968 65.6259 5.33973 65.566 5.33973H61.538C61.4721 5.34273 61.4122 5.37867 61.3823 5.43557C61.3493 5.49247 61.3523 5.56135 61.3882 5.61526L69.3395 17.8851C69.4174 18.0049 69.4563 18.1427 69.4563 18.2834L69.4803 34.8808C69.4803 34.9767 69.5582 35.0545 69.654 35.0575H73.0412C73.0891 35.0575 73.134 35.0396 73.167 35.0066C73.1999 34.9737 73.2179 34.9288 73.2179 34.8808L73.1939 18.2834C73.1939 18.1576 73.2298 18.0349 73.2987 17.933L83.1757 3.00975L83.1847 3.00675Z" fill="#010101"/>
<path d="M119.404 1.38647C120.255 1.38647 120.986 1.5482 121.599 1.86565C122.213 2.1861 122.69 2.64131 123.031 3.2283C123.369 3.81828 123.54 4.51608 123.54 5.32768C123.54 6.13929 123.369 6.82211 123.031 7.40011C122.693 7.97812 122.216 8.42135 121.599 8.73581C120.986 9.04728 120.252 9.206 119.404 9.206H116.721V1.38647H119.404ZM119.404 8.27161C120.387 8.27161 121.135 8.01406 121.644 7.49595C122.154 6.97784 122.411 6.25908 122.411 5.33367C122.411 4.40827 122.157 3.65956 121.644 3.12648C121.135 2.59339 120.387 2.32685 119.404 2.32685H117.841V8.27161H119.404Z" fill="#010101"/>
<path d="M125.217 2.63853C125.017 2.63853 124.849 2.57265 124.714 2.43788C124.579 2.30311 124.513 2.14139 124.513 1.94672C124.513 1.75206 124.579 1.57536 124.714 1.4376C124.849 1.29984 125.017 1.23096 125.217 1.23096C125.418 1.23096 125.577 1.29984 125.714 1.4376C125.852 1.57536 125.921 1.74607 125.921 1.94672C125.921 2.14738 125.852 2.30311 125.714 2.43788C125.577 2.57265 125.412 2.63853 125.217 2.63853ZM124.681 3.62084H125.741V9.20921H124.681V3.62084Z" fill="#010101"/>
<path d="M131.42 3.62059H132.381V8.29254C132.381 8.94841 132.225 9.51144 131.911 9.98163C131.599 10.4518 131.15 10.8112 130.563 11.0658C129.979 11.3203 129.272 11.4461 128.446 11.4461L128.278 10.5177C129.275 10.4967 130.033 10.2961 130.548 9.91874C131.063 9.54139 131.318 8.99932 131.318 8.29254V8.23564L131.441 8.24762C131.261 8.53213 131.006 8.77471 130.674 8.97836C130.341 9.185 129.931 9.28683 129.44 9.28683C128.949 9.28683 128.5 9.16703 128.116 8.93044C127.733 8.69085 127.433 8.35543 127.221 7.92418C127.008 7.49292 126.903 6.98979 126.903 6.41478C126.903 5.83977 127.008 5.33963 127.221 4.90538C127.433 4.47412 127.73 4.1387 128.116 3.89911C128.5 3.65952 128.94 3.54272 129.44 3.54272C129.745 3.54272 130.018 3.58465 130.261 3.66551C130.503 3.74637 130.713 3.85718 130.893 3.99495C131.072 4.13271 131.219 4.28844 131.339 4.45915L131.417 3.62059H131.42ZM128.032 6.41478C128.032 6.98979 128.182 7.45099 128.485 7.80139C128.787 8.15178 129.191 8.32548 129.698 8.32548C129.994 8.32548 130.267 8.24762 130.512 8.09488C130.758 7.94214 130.952 7.72352 131.099 7.43602C131.246 7.14851 131.318 6.8071 131.318 6.41478C131.318 6.02245 131.246 5.66906 131.099 5.38755C130.955 5.10304 130.758 4.88741 130.506 4.73467C130.258 4.58193 129.985 4.50407 129.695 4.50407C129.188 4.50407 128.784 4.67777 128.482 5.02817C128.179 5.37856 128.029 5.83977 128.029 6.41478H128.032Z" fill="#010101"/>
<path d="M134.402 2.63853C134.202 2.63853 134.034 2.57265 133.899 2.43788C133.765 2.30311 133.699 2.14139 133.699 1.94672C133.699 1.75206 133.765 1.57536 133.899 1.4376C134.034 1.29984 134.202 1.23096 134.402 1.23096C134.603 1.23096 134.762 1.29984 134.9 1.4376C135.037 1.57536 135.106 1.74607 135.106 1.94672C135.106 2.14738 135.037 2.30311 134.9 2.43788C134.762 2.57265 134.597 2.63853 134.402 2.63853ZM133.866 3.62084H134.927V9.20921H133.866V3.62084Z" fill="#010101"/>
<path d="M136.771 3.62068V2.05737H137.832V3.62068H139.227V4.55806H137.832V7.30733C137.832 7.64874 137.9 7.89132 138.038 8.03208C138.176 8.17284 138.353 8.2537 138.562 8.27167C138.772 8.28964 138.997 8.28365 139.227 8.2537V9.15814C138.922 9.22403 138.622 9.24499 138.329 9.22103C138.035 9.19408 137.769 9.11022 137.535 8.96946C137.301 8.82871 137.113 8.62206 136.975 8.34953C136.837 8.077 136.768 7.7296 136.768 7.30433V4.55507H135.963V3.61768H136.768L136.771 3.62068Z" fill="#010101"/>
<path d="M143.534 9.20896L143.444 8.39437C143.273 8.67888 143.052 8.8945 142.779 9.04724C142.506 9.19998 142.156 9.27485 141.722 9.27485C141.32 9.27485 140.976 9.20896 140.695 9.08018C140.41 8.95141 140.194 8.76872 140.042 8.53213C139.889 8.29853 139.814 8.02301 139.814 7.71154C139.814 7.24135 139.988 6.85202 140.338 6.54355C140.689 6.23509 141.195 6.04342 141.86 5.96855L143.447 5.78885V5.35161C143.447 5.11202 143.351 4.91137 143.156 4.74366C142.962 4.57594 142.683 4.49209 142.318 4.49209C141.976 4.49209 141.686 4.57295 141.446 4.73168C141.207 4.8904 141.048 5.127 140.967 5.44145L140.03 5.10603C140.17 4.61488 140.449 4.23154 140.862 3.95601C141.276 3.68049 141.776 3.54272 142.366 3.54272C143.066 3.54272 143.6 3.71643 143.965 4.06682C144.33 4.41722 144.513 4.87842 144.513 5.45343V9.20896H143.54H143.534ZM143.444 6.64837L141.913 6.83705C141.584 6.88197 141.338 6.97182 141.177 7.10958C141.015 7.24734 140.931 7.42703 140.931 7.65165C140.931 7.86128 141.012 8.03499 141.171 8.16975C141.329 8.30752 141.557 8.3764 141.848 8.3764C142.204 8.3764 142.503 8.31051 142.743 8.17574C142.983 8.04097 143.159 7.8523 143.273 7.60972C143.39 7.36714 143.447 7.08562 143.447 6.76517V6.64238L143.444 6.64837Z" fill="#010101"/>
<path d="M145.735 1.16187H146.786V9.209H145.735V1.16187Z" fill="#010101"/>
<path d="M122.345 15.2317C122.345 15.5162 122.297 15.7978 122.198 16.0763C122.1 16.3548 121.944 16.6064 121.728 16.831C121.513 17.0556 121.231 17.2323 120.884 17.3611C120.536 17.4898 120.123 17.5557 119.638 17.5557H117.838V20.7183H116.721V12.8958H119.638C120.249 12.8958 120.755 13.0006 121.153 13.2132C121.552 13.4258 121.851 13.7074 122.049 14.0637C122.246 14.4171 122.345 14.8065 122.345 15.2317ZM119.641 16.6183C120.006 16.6183 120.306 16.5614 120.539 16.4446C120.773 16.3278 120.947 16.1661 121.06 15.9595C121.171 15.7498 121.228 15.5073 121.228 15.2317C121.228 14.7915 121.102 14.4501 120.848 14.2045C120.593 13.9589 120.192 13.8361 119.641 13.8361H117.841V16.6183H119.641Z" fill="#010101"/>
<path d="M123.319 15.1329H124.28L124.346 15.8816C124.502 15.6869 124.684 15.5252 124.888 15.3964C125.091 15.2676 125.316 15.1748 125.559 15.1239C125.801 15.073 126.053 15.076 126.313 15.1359V16.1302C126.068 16.0703 125.828 16.0643 125.598 16.1092C125.367 16.1541 125.16 16.2499 124.978 16.3937C124.795 16.5375 124.648 16.7321 124.537 16.9687C124.427 17.2083 124.37 17.4928 124.37 17.8282V20.7212H123.319V15.1329Z" fill="#010101"/>
<path d="M129.431 20.7991C128.901 20.7991 128.428 20.6823 128.005 20.4457C127.583 20.2091 127.254 19.8797 127.017 19.4514C126.778 19.0232 126.661 18.517 126.661 17.936C126.661 17.355 126.784 16.8369 127.029 16.4057C127.275 15.9744 127.61 15.639 128.035 15.4054C128.461 15.1718 128.937 15.052 129.467 15.052C129.997 15.052 130.473 15.1688 130.904 15.4054C131.333 15.639 131.671 15.9714 131.917 16.3997C132.162 16.8279 132.285 17.3341 132.285 17.9151C132.285 18.4961 132.159 19.0142 131.911 19.4454C131.662 19.8767 131.321 20.2121 130.889 20.4457C130.458 20.6793 129.973 20.7991 129.437 20.7991H129.431ZM129.419 19.8378C129.716 19.8378 129.997 19.7689 130.258 19.6311C130.518 19.4934 130.734 19.2837 130.901 18.9992C131.069 18.7147 131.153 18.3553 131.153 17.9151C131.153 17.4748 131.072 17.1274 130.913 16.8489C130.752 16.5704 130.542 16.3607 130.282 16.223C130.021 16.0852 129.742 16.0163 129.443 16.0163C129.143 16.0163 128.883 16.0852 128.631 16.223C128.38 16.3607 128.179 16.5704 128.023 16.8549C127.868 17.1394 127.79 17.4988 127.79 17.939C127.79 18.3793 127.868 18.7267 128.02 19.0052C128.173 19.2837 128.371 19.4934 128.619 19.6311C128.868 19.7689 129.135 19.8378 129.425 19.8378H129.419Z" fill="#010101"/>
<path d="M137.499 16.0822L137.376 16.1151V12.6741H138.439V20.7212H137.478L137.4 19.8827C137.215 20.1372 136.963 20.3528 136.646 20.5295C136.328 20.7092 135.945 20.7991 135.49 20.7991C134.983 20.7991 134.54 20.6793 134.166 20.4427C133.788 20.2031 133.495 19.8677 133.282 19.4364C133.07 19.0052 132.965 18.502 132.965 17.927C132.965 17.352 133.07 16.8519 133.282 16.4176C133.495 15.9834 133.788 15.6509 134.166 15.4114C134.543 15.1718 134.983 15.055 135.49 15.055C135.996 15.055 136.385 15.1538 136.723 15.3515C137.062 15.5491 137.322 15.7917 137.499 16.0822ZM134.091 17.927C134.091 18.502 134.241 18.9632 134.537 19.3136C134.834 19.664 135.235 19.8377 135.732 19.8377C136.038 19.8377 136.313 19.7629 136.559 19.6131C136.804 19.4634 137.002 19.2448 137.152 18.9602C137.301 18.6727 137.376 18.3283 137.376 17.927C137.376 17.5257 137.301 17.1813 137.152 16.8998C137.002 16.6153 136.804 16.3997 136.559 16.2469C136.313 16.0942 136.038 16.0163 135.732 16.0163C135.241 16.0163 134.843 16.19 134.543 16.5404C134.241 16.8908 134.091 17.352 134.091 17.927Z" fill="#010101"/>
<path d="M144.426 20.7212H143.465L143.387 20.0623C143.207 20.3019 142.983 20.4846 142.71 20.6104C142.438 20.7362 142.135 20.799 141.8 20.799C141.368 20.799 140.991 20.7092 140.671 20.5265C140.35 20.3438 140.102 20.0773 139.928 19.7209C139.754 19.3675 139.664 18.9243 139.664 18.3972V15.1328H140.728V18.2624C140.728 18.7775 140.832 19.1669 141.045 19.4364C141.258 19.7059 141.581 19.8377 142.012 19.8377C142.444 19.8377 142.77 19.6999 143.013 19.4244C143.255 19.1489 143.375 18.7386 143.375 18.1965V15.1358H144.426V20.7242V20.7212Z" fill="#010101"/>
<path d="M148.137 20.799C147.601 20.799 147.128 20.6792 146.717 20.4367C146.307 20.1941 145.989 19.8617 145.762 19.4364C145.534 19.0111 145.42 18.517 145.42 17.9509C145.42 17.3849 145.537 16.8758 145.768 16.4415C145.998 16.0103 146.319 15.6719 146.729 15.4233C147.14 15.1747 147.616 15.0549 148.161 15.0549C148.736 15.0549 149.239 15.1897 149.676 15.4562C150.113 15.7228 150.428 16.0852 150.62 16.5404L149.67 16.8758C149.559 16.6152 149.371 16.4056 149.107 16.2499C148.844 16.0941 148.544 16.0163 148.209 16.0163C147.873 16.0163 147.571 16.0971 147.325 16.2559C147.08 16.4176 146.888 16.6392 146.756 16.9267C146.621 17.2142 146.556 17.5496 146.556 17.939C146.556 18.52 146.705 18.9812 147.002 19.3256C147.298 19.667 147.703 19.8407 148.209 19.8407C148.544 19.8407 148.844 19.7658 149.107 19.6161C149.371 19.4663 149.571 19.2627 149.706 19.0021L150.643 19.3376C150.434 19.7838 150.107 20.1402 149.661 20.4037C149.215 20.6673 148.709 20.802 148.14 20.802L148.137 20.799Z" fill="#010101"/>
<path d="M151.814 15.1329V13.5696H152.875V15.1329H154.27V16.0703H152.875V18.8195C152.875 19.1609 152.943 19.4035 153.081 19.5443C153.219 19.685 153.396 19.7659 153.605 19.7839C153.815 19.8018 154.04 19.7959 154.27 19.7659V20.6703C153.965 20.7362 153.665 20.7572 153.372 20.7332C153.078 20.7063 152.812 20.6224 152.578 20.4817C152.344 20.3409 152.156 20.1343 152.018 19.8617C151.88 19.5892 151.811 19.2418 151.811 18.8165V16.0673H151.006V15.1299H151.811L151.814 15.1329Z" fill="#010101"/>
<path d="M119.404 24.408C120.255 24.408 120.986 24.5697 121.599 24.8872C122.213 25.2076 122.69 25.6629 123.031 26.2499C123.369 26.8398 123.54 27.5376 123.54 28.3492C123.54 29.1608 123.369 29.8437 123.031 30.4217C122.693 30.9997 122.216 31.4429 121.599 31.7574C120.986 32.0688 120.252 32.2276 119.404 32.2276H116.721V24.405H119.404V24.408ZM119.404 31.2932C120.387 31.2932 121.135 31.0356 121.644 30.5175C122.154 29.9994 122.411 29.2806 122.411 28.3552C122.411 27.4298 122.157 26.6811 121.644 26.148C121.135 25.6149 120.387 25.3484 119.404 25.3484H117.841V31.2932H119.404Z" fill="#010101"/>
<path d="M126.939 32.3083C126.403 32.3083 125.927 32.1825 125.514 31.934C125.1 31.6854 124.777 31.341 124.54 30.9007C124.307 30.4605 124.187 29.9574 124.187 29.3913C124.187 28.8253 124.304 28.3641 124.534 27.9388C124.765 27.5136 125.083 27.1782 125.49 26.9326C125.897 26.687 126.355 26.5642 126.87 26.5642C127.386 26.5642 127.853 26.678 128.257 26.9056C128.661 27.1332 128.973 27.4507 129.194 27.855C129.419 28.2623 129.527 28.7295 129.518 29.2566C129.518 29.3464 129.515 29.4363 129.506 29.5291C129.497 29.6219 129.488 29.7238 129.473 29.8376H125.337C125.358 30.1341 125.442 30.3976 125.589 30.6252C125.735 30.8528 125.921 31.0295 126.149 31.1553C126.376 31.2811 126.634 31.344 126.924 31.344C127.296 31.344 127.622 31.2721 127.898 31.1254C128.173 30.9816 128.368 30.7839 128.479 30.5384L129.395 30.8618C129.17 31.317 128.847 31.6704 128.416 31.925C127.988 32.1795 127.493 32.3053 126.936 32.3053L126.939 32.3083ZM128.371 28.9331C128.371 28.6636 128.305 28.424 128.17 28.2054C128.035 27.9898 127.856 27.819 127.628 27.6963C127.401 27.5735 127.146 27.5106 126.861 27.5106C126.607 27.5106 126.376 27.5735 126.164 27.6963C125.951 27.819 125.771 27.9868 125.628 28.1994C125.481 28.412 125.391 28.6546 125.355 28.9331H128.371Z" fill="#010101"/>
<path d="M131.15 30.4635C131.201 30.6881 131.291 30.8618 131.42 30.9876C131.545 31.1134 131.698 31.2062 131.872 31.2601C132.045 31.317 132.231 31.344 132.426 31.344C132.761 31.344 133.022 31.2781 133.208 31.1433C133.393 31.0086 133.486 30.8408 133.486 30.6402C133.486 30.4695 133.429 30.3317 133.312 30.2329C133.196 30.1311 133.043 30.0532 132.854 29.9933C132.665 29.9334 132.462 29.8765 132.246 29.8256C132.051 29.7747 131.842 29.7148 131.614 29.6459C131.387 29.58 131.174 29.4872 130.976 29.3734C130.779 29.2566 130.617 29.1098 130.491 28.9271C130.365 28.7445 130.303 28.5109 130.303 28.2293C130.303 27.8939 130.392 27.6004 130.575 27.3519C130.758 27.1033 131.012 26.9086 131.336 26.7709C131.659 26.6331 132.028 26.5642 132.438 26.5642C132.914 26.5642 133.333 26.666 133.696 26.8727C134.058 27.0763 134.319 27.3848 134.483 27.7951L133.534 28.1066C133.483 27.9658 133.396 27.849 133.276 27.7592C133.157 27.6693 133.022 27.6094 132.869 27.5735C132.716 27.5405 132.567 27.5226 132.417 27.5226C132.132 27.5226 131.899 27.5795 131.713 27.6903C131.527 27.8011 131.435 27.9658 131.435 28.1814C131.435 28.3012 131.465 28.4 131.524 28.4779C131.584 28.5558 131.668 28.6187 131.776 28.6696C131.884 28.7205 132.013 28.7594 132.162 28.7984C132.312 28.8373 132.471 28.8762 132.641 28.9211C132.866 28.987 133.094 29.0619 133.324 29.1398C133.555 29.2176 133.768 29.3165 133.962 29.4363C134.157 29.5561 134.313 29.7118 134.432 29.9065C134.552 30.1011 134.615 30.3377 134.621 30.6222C134.621 30.9517 134.531 31.2422 134.349 31.4937C134.166 31.7483 133.908 31.9459 133.576 32.0927C133.243 32.2364 132.851 32.3113 132.396 32.3113C131.845 32.3113 131.375 32.1885 130.988 31.9429C130.602 31.6974 130.341 31.317 130.207 30.8019L131.156 30.4665L131.15 30.4635Z" fill="#010101"/>
<path d="M136.313 25.6598C136.113 25.6598 135.945 25.5939 135.81 25.4591C135.675 25.3243 135.609 25.1626 135.609 24.968C135.609 24.7733 135.675 24.5966 135.81 24.4588C135.945 24.3211 136.113 24.2522 136.313 24.2522C136.514 24.2522 136.673 24.3211 136.81 24.4588C136.948 24.5966 137.017 24.7673 137.017 24.968C137.017 25.1686 136.948 25.3243 136.81 25.4591C136.673 25.5939 136.508 25.6598 136.313 25.6598ZM135.777 26.6421H136.84V32.2305H135.777V26.6421Z" fill="#010101"/>
<path d="M142.515 26.6421H143.477V31.314C143.477 31.9699 143.321 32.5329 143.007 33.0031C142.692 33.4733 142.246 33.8327 141.659 34.0872C141.075 34.3418 140.368 34.4676 139.542 34.4676L139.374 33.5392C140.371 33.5182 141.129 33.3176 141.641 32.9402C142.156 32.5629 142.411 32.0208 142.411 31.314V31.2571L142.533 31.2691C142.354 31.5536 142.099 31.7962 141.767 31.9998C141.434 32.2065 141.024 32.3083 140.533 32.3083C140.042 32.3083 139.593 32.1885 139.209 31.9519C138.826 31.7123 138.526 31.3769 138.317 30.9457C138.104 30.5144 137.999 30.0113 137.999 29.4363C137.999 28.8613 138.104 28.3611 138.317 27.9269C138.529 27.4956 138.826 27.1602 139.209 26.9206C139.593 26.681 140.033 26.5642 140.533 26.5642C140.838 26.5642 141.111 26.6061 141.353 26.687C141.596 26.7679 141.806 26.8787 141.985 27.0164C142.165 27.1542 142.312 27.3099 142.432 27.4806L142.509 26.6421H142.515ZM139.128 29.4363C139.128 30.0113 139.278 30.4725 139.581 30.8229C139.883 31.1733 140.287 31.347 140.793 31.347C141.09 31.347 141.362 31.2691 141.608 31.1164C141.854 30.9636 142.048 30.745 142.195 30.4575C142.342 30.17 142.414 29.8286 142.414 29.4363C142.414 29.0439 142.342 28.6905 142.195 28.409C142.048 28.1275 141.854 27.9089 141.602 27.7562C141.353 27.6034 141.081 27.5256 140.79 27.5256C140.284 27.5256 139.88 27.6993 139.578 28.0497C139.275 28.4 139.125 28.8613 139.125 29.4363H139.128Z" fill="#010101"/>
<path d="M144.798 26.6421H145.759L145.825 27.289C146.004 27.0584 146.232 26.8787 146.508 26.7529C146.783 26.6271 147.089 26.5642 147.424 26.5642C147.855 26.5642 148.23 26.6541 148.547 26.8367C148.865 27.0194 149.11 27.289 149.284 27.6483C149.458 28.0047 149.547 28.454 149.547 28.99V32.2304H148.496V29.1248C148.496 28.6037 148.385 28.2054 148.167 27.9358C147.948 27.6633 147.628 27.5285 147.211 27.5285C146.795 27.5285 146.445 27.6693 146.205 27.9478C145.966 28.2263 145.849 28.6396 145.849 29.1817V32.2334H144.798V26.6451V26.6421Z" fill="#010101"/>
<path d="M154.384 30.164C154.429 30.3736 154.519 30.5653 154.657 30.745C154.794 30.9247 154.983 31.0684 155.22 31.1822C155.459 31.293 155.753 31.3499 156.103 31.3499C156.624 31.3499 157.01 31.2301 157.259 30.9875C157.508 30.745 157.633 30.4605 157.633 30.134C157.633 29.8645 157.556 29.6429 157.406 29.4692C157.253 29.2955 157.043 29.1457 156.78 29.0229C156.516 28.9001 156.211 28.7893 155.869 28.6935C155.57 28.6036 155.279 28.5078 154.992 28.409C154.704 28.3072 154.447 28.1814 154.216 28.0286C153.986 27.8759 153.803 27.6782 153.668 27.4357C153.533 27.1931 153.468 26.8906 153.468 26.5252C153.468 26.07 153.575 25.6807 153.791 25.3513C154.007 25.0248 154.309 24.7732 154.701 24.5966C155.094 24.4229 155.546 24.333 156.058 24.333C156.489 24.333 156.879 24.3959 157.22 24.5187C157.562 24.6415 157.852 24.8152 158.086 25.0428C158.319 25.2704 158.493 25.5429 158.607 25.8634L157.589 26.2317C157.544 26.067 157.451 25.9143 157.31 25.7675C157.169 25.6238 156.99 25.504 156.774 25.4171C156.558 25.3303 156.316 25.2824 156.046 25.2824C155.771 25.2764 155.522 25.3183 155.303 25.4111C155.085 25.504 154.908 25.6358 154.779 25.8095C154.648 25.9802 154.585 26.1868 154.585 26.4234C154.585 26.684 154.66 26.8876 154.809 27.0373C154.959 27.1871 155.157 27.3099 155.408 27.4057C155.657 27.5015 155.932 27.5944 156.229 27.6842C156.54 27.7801 156.846 27.8849 157.145 27.9957C157.442 28.1065 157.714 28.2503 157.957 28.421C158.199 28.5917 158.394 28.8073 158.544 29.0649C158.694 29.3224 158.768 29.6459 158.768 30.0322C158.768 30.4485 158.673 30.8288 158.478 31.1732C158.283 31.5146 157.993 31.7932 157.6 31.9998C157.208 32.2064 156.72 32.3113 156.13 32.3113C155.645 32.3113 155.211 32.2364 154.821 32.0866C154.435 31.9369 154.114 31.7303 153.866 31.4667C153.617 31.2032 153.45 30.8947 153.369 30.5443L154.387 30.164H154.384Z" fill="#010101"/>
<path d="M160.173 26.6422V25.0789H161.236V26.6422H162.632V27.5795H161.236V30.3288C161.236 30.6702 161.305 30.9128 161.443 31.0536C161.581 31.1943 161.754 31.2752 161.967 31.2932C162.18 31.3111 162.401 31.3051 162.632 31.2752V32.1796C162.326 32.2455 162.027 32.2665 161.733 32.2425C161.44 32.2156 161.173 32.1317 160.94 31.9909C160.706 31.8502 160.517 31.6435 160.38 31.371C160.242 31.0985 160.173 30.7511 160.173 30.3258V27.5766H159.367V26.6392H160.173V26.6422Z" fill="#010101"/>
<path d="M168.196 32.2305H167.235L167.157 31.5716C166.977 31.8112 166.753 31.9939 166.48 32.1197C166.208 32.2454 165.905 32.3083 165.57 32.3083C165.138 32.3083 164.761 32.2185 164.441 32.0358C164.12 31.8531 163.872 31.5866 163.698 31.2302C163.524 30.8768 163.434 30.4336 163.434 29.9065V26.6421H164.498V29.7717C164.498 30.2868 164.602 30.6761 164.815 30.9457C165.028 31.2152 165.351 31.347 165.782 31.347C166.214 31.347 166.54 31.2092 166.783 30.9337C167.025 30.6582 167.145 30.2479 167.145 29.7058V26.6451H168.196V32.2335V32.2305Z" fill="#010101"/>
<path d="M173.728 27.5915L173.605 27.6244V24.1833H174.668V32.2305H173.707L173.629 31.3919C173.443 31.6465 173.192 31.8621 172.874 32.0388C172.557 32.2185 172.173 32.3084 171.718 32.3084C171.212 32.3084 170.769 32.1886 170.394 31.952C170.017 31.7124 169.724 31.377 169.511 30.9457C169.298 30.5144 169.193 30.0113 169.193 29.4363C169.193 28.8613 169.298 28.3612 169.511 27.9269C169.724 27.4926 170.017 27.1602 170.394 26.9206C170.772 26.681 171.212 26.5642 171.718 26.5642C172.224 26.5642 172.614 26.6631 172.952 26.8607C173.29 27.0584 173.551 27.301 173.728 27.5915ZM170.32 29.4363C170.32 30.0113 170.469 30.4725 170.766 30.8229C171.062 31.1733 171.464 31.347 171.961 31.347C172.266 31.347 172.542 31.2721 172.787 31.1224C173.033 30.9727 173.231 30.754 173.38 30.4695C173.53 30.182 173.605 29.8376 173.605 29.4363C173.605 29.035 173.53 28.6906 173.38 28.4091C173.231 28.1246 173.033 27.9089 172.787 27.7562C172.542 27.6035 172.266 27.5256 171.961 27.5256C171.47 27.5256 171.071 27.6993 170.772 28.0497C170.469 28.4001 170.32 28.8613 170.32 29.4363Z" fill="#010101"/>
<path d="M176.69 25.6598C176.489 25.6598 176.321 25.5939 176.186 25.4591C176.052 25.3243 175.986 25.1626 175.986 24.968C175.986 24.7733 176.052 24.5966 176.186 24.4588C176.321 24.3211 176.489 24.2522 176.69 24.2522C176.89 24.2522 177.049 24.3211 177.187 24.4588C177.324 24.5966 177.393 24.7673 177.393 24.968C177.393 25.1686 177.324 25.3243 177.187 25.4591C177.049 25.5939 176.884 25.6598 176.69 25.6598ZM176.153 26.6421H177.217V32.2305H176.153V26.6421Z" fill="#010101"/>
<path d="M181.149 32.3084C180.619 32.3084 180.146 32.1916 179.723 31.955C179.301 31.7184 178.972 31.389 178.735 30.9607C178.495 30.5324 178.379 30.0263 178.379 29.4453C178.379 28.8643 178.501 28.3462 178.747 27.9149C178.993 27.4837 179.328 27.1483 179.753 26.9147C180.179 26.6811 180.655 26.5613 181.185 26.5613C181.715 26.5613 182.191 26.6781 182.622 26.9147C183.051 27.1483 183.389 27.4807 183.635 27.909C183.88 28.3372 184.003 28.8433 184.003 29.4243C184.003 30.0053 183.877 30.5235 183.629 30.9547C183.38 31.386 183.039 31.7214 182.607 31.955C182.176 32.1886 181.691 32.3084 181.155 32.3084H181.149ZM181.137 31.347C181.433 31.347 181.715 31.2782 181.975 31.1404C182.236 31.0026 182.452 30.793 182.619 30.5085C182.787 30.224 182.871 29.8646 182.871 29.4243C182.871 28.9841 182.79 28.6367 182.631 28.3582C182.47 28.0797 182.26 27.87 181.999 27.7323C181.739 27.5945 181.46 27.5256 181.161 27.5256C180.861 27.5256 180.601 27.5945 180.349 27.7323C180.098 27.87 179.897 28.0797 179.741 28.3642C179.586 28.6487 179.508 29.0081 179.508 29.4483C179.508 29.8885 179.586 30.2359 179.738 30.5145C179.891 30.793 180.089 31.0026 180.337 31.1404C180.586 31.2782 180.852 31.347 181.143 31.347H181.137Z" fill="#010101"/>
</g>
<defs>
<clipPath id="clip0_40_2">
<rect width="184" height="35.0756" fill="white"/>
</clipPath>
</defs>
</svg>
