<svg width="85" height="29" viewBox="0 0 85 29" fill="none" xmlns="http://www.w3.org/2000/svg">
<path d="M42.1097 10.3699L39.1277 20.1899H37.5141L35.4153 13.4802C35.3578 13.3172 35.3047 13.118 35.256 12.8826C35.2294 12.9958 35.2028 13.1022 35.1763 13.2018C35.1497 13.3014 35.1209 13.3942 35.0899 13.4802L32.9714 20.1899H31.351L28.3759 10.3699H29.8701C30.0251 10.3699 30.1534 10.4083 30.2553 10.4853C30.3615 10.5577 30.4323 10.6574 30.4678 10.7841L32.1015 16.6585C32.1369 16.8034 32.1701 16.9618 32.2011 17.1338C32.2365 17.3013 32.2719 17.4779 32.3073 17.6636C32.3428 17.4734 32.3804 17.2946 32.4202 17.1271C32.4645 16.9596 32.511 16.8034 32.5597 16.6585L34.4458 10.7841C34.4812 10.68 34.5498 10.5849 34.6516 10.4989C34.7579 10.4129 34.8863 10.3699 35.0368 10.3699H35.5614C35.7164 10.3699 35.8426 10.4083 35.94 10.4853C36.0373 10.5623 36.1105 10.6619 36.1593 10.7841L38.0385 16.6585C38.1315 16.9392 38.2155 17.2629 38.2909 17.6296C38.3483 17.2719 38.4126 16.9482 38.4837 16.6585L40.1174 10.7841C40.1439 10.671 40.2103 10.5736 40.3166 10.4921C40.4272 10.4106 40.5578 10.3699 40.7082 10.3699H42.1097ZM45.0816 11.8232V14.5464H48.442V15.9522H45.0816V18.7298H49.3452V20.1899H43.2885V10.3699H49.3452V11.8232H45.0816ZM58.7316 20.1899H56.9518C56.828 20.1899 56.7282 20.1582 56.6532 20.0948C56.5821 20.0314 56.5247 19.959 56.4805 19.8775L54.2556 16.1084C54.22 16.2216 54.178 16.3189 54.1296 16.4004L51.9976 19.8775C51.9445 19.9544 51.8824 20.0269 51.8117 20.0948C51.7453 20.1582 51.6566 20.1899 51.546 20.1899H49.8793L53.067 15.1373L50.0053 10.3699H51.7851C51.909 10.3699 51.9976 10.388 52.0508 10.4242C52.1082 10.4559 52.1613 10.5102 52.2101 10.5872L54.3952 14.1865C54.4394 14.0733 54.4925 13.9601 54.5546 13.8469L56.5602 10.6211C56.6087 10.5351 56.6618 10.4717 56.7196 10.431C56.777 10.3902 56.8499 10.3699 56.9385 10.3699H58.6455L55.5572 15.0626L58.7316 20.1899ZM66.5469 11.8707H63.6514V20.1899H61.8647V11.8707H58.9693V10.3699H66.5469V11.8707ZM66.4234 19.2663C66.4234 19.1259 66.4478 18.9923 66.4962 18.8656C66.5494 18.7388 66.6204 18.6302 66.7088 18.5396C66.7974 18.4491 66.9037 18.3766 67.0275 18.3223C67.1517 18.268 67.2845 18.2408 67.426 18.2408C67.5678 18.2408 67.6984 18.268 67.818 18.3223C67.9418 18.3766 68.0481 18.4491 68.1368 18.5396C68.2297 18.6302 68.3026 18.7388 68.3557 18.8656C68.4089 18.9923 68.4354 19.1259 68.4354 19.2663C68.4354 19.4112 68.4089 19.547 68.3557 19.6737C68.3026 19.796 68.2297 19.9024 68.1368 19.9929C68.0481 20.0835 67.9418 20.1536 67.818 20.2034C67.6984 20.2578 67.5678 20.2849 67.426 20.2849C67.2845 20.2849 67.1517 20.2578 67.0275 20.2034C66.9037 20.1536 66.7974 20.0835 66.7088 19.9929C66.6204 19.9024 66.5494 19.796 66.4962 19.6737C66.4478 19.547 66.4234 19.4112 66.4234 19.2663Z" fill="#6A4DFF"/>
<path d="M75.1472 16.4819L73.9783 13.2154C73.9205 13.0705 73.861 12.8985 73.7988 12.6992C73.7371 12.5 73.675 12.285 73.6129 12.0541C73.5555 12.285 73.4955 12.5023 73.4338 12.706C73.3717 12.9052 73.3121 13.0795 73.2543 13.2289L72.0923 16.4819H75.1472ZM78.3015 20.1899H76.9201C76.7654 20.1899 76.6391 20.1514 76.5418 20.0744C76.4441 19.9929 76.3713 19.8933 76.3224 19.7756L75.6052 17.7722H71.6274L70.9102 19.7756C70.8746 19.8797 70.8061 19.9748 70.7041 20.0608C70.6025 20.1468 70.4762 20.1899 70.3258 20.1899H68.9312L72.7097 10.3699H74.5294L78.3015 20.1899ZM81.0885 20.1899H79.2955V10.3699H81.0885V20.1899Z" fill="black"/>
<path d="M14.5753 13.2471C15.3732 13.833 15.3732 15.0468 14.5753 15.6327L6.40857 21.6287C5.45858 22.3262 4.13525 21.6319 4.13525 20.4359V8.44387C4.13525 7.24789 5.45858 6.55358 6.40857 7.25109L14.5753 13.2471Z" fill="#C9C0F8"/>
<path d="M14.5753 13.2471C15.3732 13.833 15.3732 15.0468 14.5753 15.6327L6.40857 21.6287C5.45858 22.3262 4.13525 21.6319 4.13525 20.4359V8.44387C4.13525 7.24789 5.45858 6.55358 6.40857 7.25109L14.5753 13.2471Z" fill="url(#paint0_linear_61_320)" fill-opacity="0.2"/>
<path d="M24.2755 12.7174C25.4607 13.5968 25.4607 15.4032 24.2755 16.2826L13.1748 24.5203C11.7509 25.5769 9.75592 24.5367 9.75592 22.7377V6.26229C9.75592 4.46326 11.7509 3.42306 13.1748 4.47967L24.2755 12.7174Z" fill="#6A4DFF"/>
<defs>
<linearGradient id="paint0_linear_61_320" x1="16.1998" y1="14.4399" x2="0.113704" y2="14.4399" gradientUnits="userSpaceOnUse">
<stop stop-color="#7156FE"/>
<stop offset="0.422981" stop-color="#6A4DFF"/>
<stop offset="0.499122" stop-color="#6A4DFF"/>
<stop offset="0.558313" stop-color="#6A4DFF"/>
<stop offset="0.623728" stop-color="#6A4DFF"/>
<stop offset="0.6872" stop-color="#6A4DFF"/>
<stop offset="0.746387" stop-color="#6A4DFF"/>
<stop offset="1" stop-opacity="0"/>
</linearGradient>
</defs>
</svg>
