<svg width="82" height="42" viewBox="0 0 82 42" fill="none" xmlns="http://www.w3.org/2000/svg">
    <g clip-path="url(#clip0)">
        <path class="ruuf-logo" d="M7.47786 22.2733C7.47786 21.8698 7.66757 21.6663 8.04526 21.6663H15.9474C16.8166 21.6663 17.6306 21.8301 18.3877 22.156C19.1448 22.4837 19.8054 22.9269 20.3693 23.4857C20.9333 24.0462 21.3765 24.7033 21.699 25.4621C22.0215 26.2192 22.1836 27.0246 22.1836 27.8766C22.1836 28.4698 22.1025 29.039 21.9387 29.5805C21.7749 30.122 21.5472 30.6256 21.254 31.0912C20.9609 31.5569 20.6125 31.976 20.2089 32.3502C19.8036 32.7245 19.357 33.0418 18.8655 33.2988L22.2233 39.923C22.2405 40.0092 22.2698 40.0954 22.313 40.1817C22.3561 40.2679 22.3768 40.3576 22.3768 40.4524C22.3768 40.7111 22.2267 40.8405 21.9249 40.8405H18.9293C18.6188 40.8405 18.4119 40.6818 18.3101 40.3627L15.1869 34.1645C15.0489 34.1645 14.9006 34.1662 14.7419 34.1714C14.5833 34.1766 14.3625 34.1783 14.0831 34.1783C13.8037 34.1783 13.4381 34.1783 12.9863 34.1783C12.5344 34.1783 11.9515 34.1783 11.2375 34.1783V40.2851C11.2375 40.6559 11.0392 40.8405 10.6442 40.8405H8.04526C7.8728 40.8405 7.73483 40.7956 7.63135 40.7042C7.52787 40.6145 7.47614 40.4748 7.47614 40.2851V22.2733H7.47786ZM18.3619 27.8955C18.3619 27.5265 18.2929 27.1678 18.1549 26.8194C18.0169 26.471 17.8238 26.1606 17.5737 25.8847C17.3237 25.6104 17.027 25.3862 16.6821 25.2155C16.3372 25.043 15.9629 24.9447 15.5594 24.9189C15.2576 24.9103 14.9627 24.9034 14.6747 24.8999C14.3866 24.8965 14.0866 24.893 13.7779 24.893H11.2358V30.8843H14.6453C14.8178 30.8843 14.9782 30.8843 15.13 30.8843C15.28 30.8843 15.4421 30.8757 15.6146 30.8584C16.0199 30.8326 16.3906 30.7377 16.7321 30.5756C17.0719 30.4118 17.3633 30.1962 17.603 29.9254C17.8445 29.6547 18.0307 29.3459 18.1653 28.9976C18.2963 28.6492 18.3619 28.2819 18.3619 27.8955Z" fill="#3E3738" />
        <path class="ruuf-logo" d="M28.5112 33.0538C28.5112 33.7764 28.6147 34.4266 28.8217 35.0043C29.0286 35.5803 29.3183 36.0701 29.6926 36.4702C30.0668 36.8703 30.5152 37.1756 31.0361 37.3877C31.5569 37.5981 32.1364 37.7033 32.7727 37.7033C33.4436 37.7033 34.0472 37.5912 34.5801 37.367C35.113 37.1428 35.5632 36.8272 35.9288 36.4185C36.2944 36.0097 36.5738 35.52 36.7687 34.9457C36.9618 34.3731 37.0584 33.7436 37.0584 33.0538V22.2336C37.0584 22.0784 37.1136 21.9456 37.2257 21.8335C37.3378 21.7214 37.4792 21.6662 37.6499 21.6662H40.1454C40.3248 21.6662 40.4783 21.7231 40.6025 21.8335C40.7266 21.9456 40.7887 22.0784 40.7887 22.2336V33.1969C40.7887 34.5318 40.5731 35.6959 40.1437 36.6892C39.7143 37.6843 39.1331 38.5122 38.4019 39.1744C37.6706 39.8367 36.8187 40.3316 35.8477 40.6593C34.8768 40.987 33.8472 41.1491 32.7641 41.1491C31.6811 41.1491 30.6515 40.9749 29.6805 40.6265C28.7078 40.2782 27.8576 39.7677 27.1264 39.0968C26.3951 38.4259 25.8157 37.5947 25.3845 36.6047C24.9551 35.6148 24.7395 34.4783 24.7395 33.1952V22.2318C24.7395 22.0939 24.7895 21.9645 24.8878 21.8438C24.9861 21.7231 25.1137 21.6627 25.269 21.6627H27.9024C28.0318 21.6627 28.1646 21.7196 28.3025 21.83C28.4405 21.9421 28.5095 22.0749 28.5095 22.2301V33.0538H28.5112Z" fill="#3E3738" />
        <path class="ruuf-logo" d="M47.7113 33.0538C47.7113 33.7764 47.8148 34.4266 48.0217 35.0043C48.2287 35.5803 48.5184 36.0701 48.8927 36.4702C49.2669 36.8703 49.7153 37.1756 50.2361 37.3877C50.757 37.5981 51.3364 37.7033 51.9728 37.7033C52.6437 37.7033 53.2473 37.5912 53.7802 37.367C54.3131 37.1428 54.7632 36.8272 55.1288 36.4185C55.4945 36.0097 55.7738 35.52 55.9687 34.9457C56.1619 34.3731 56.2585 33.7436 56.2585 33.0538V22.2336C56.2585 22.0784 56.3136 21.9456 56.4257 21.8335C56.5378 21.7214 56.6793 21.6662 56.85 21.6662H59.3455C59.5249 21.6662 59.6784 21.7231 59.8025 21.8335C59.9267 21.9456 59.9888 22.0784 59.9888 22.2336V33.1969C59.9888 34.5318 59.7732 35.6959 59.3438 36.6892C58.9144 37.6843 58.3332 38.5122 57.6019 39.1744C56.8707 39.8367 56.0187 40.3316 55.0478 40.6593C54.0768 40.987 53.0472 41.1491 51.9642 41.1491C50.8811 41.1491 49.8515 40.9749 48.8806 40.6265C47.9079 40.2782 47.0577 39.7677 46.3264 39.0968C45.5952 38.4259 45.0157 37.5947 44.5846 36.6047C44.1551 35.6148 43.9396 34.4783 43.9396 33.1952V22.2318C43.9396 22.0939 43.9896 21.9645 44.0879 21.8438C44.1862 21.7231 44.3138 21.6627 44.469 21.6627H47.1025C47.2319 21.6627 47.3647 21.7196 47.5026 21.83C47.6406 21.9421 47.7096 22.0749 47.7096 22.2301V33.0538H47.7113Z" fill="#3E3738" />
        <path class="ruuf-logo" d="M62.8447 22.2595C62.8447 22.0698 62.8947 21.9266 62.993 21.8266C63.0913 21.7283 63.2224 21.6748 63.3863 21.6645H75.6534C76.0483 21.6645 76.2467 21.8714 76.2467 22.2836V24.5308C76.2467 24.686 76.1949 24.8257 76.0915 24.9499C75.988 25.074 75.8414 25.1379 75.6517 25.1379H66.6009V30.3031C66.8251 30.3031 67.1218 30.3031 67.4926 30.3031C67.8633 30.3031 68.2669 30.3031 68.7067 30.3031C69.1465 30.3031 69.6017 30.3048 70.076 30.31C70.5503 30.3151 71.0056 30.3169 71.4454 30.3169C71.8851 30.3169 72.287 30.3169 72.6526 30.3169C73.0182 30.3169 73.3183 30.3169 73.5494 30.3169C73.7046 30.3169 73.8374 30.3617 73.9495 30.4531C74.0616 30.5428 74.1168 30.6911 74.1168 30.898V33.0935C74.1168 33.2487 74.0668 33.3884 73.9685 33.5126C73.8702 33.6367 73.7339 33.7005 73.5615 33.7005H66.6009V40.2989C66.6009 40.6611 66.3991 40.8404 65.9939 40.8404H63.3621C63.0172 40.8232 62.8447 40.6421 62.8447 40.2989V22.2595Z" fill="#3E3738" />
        <path d="M81.575 18.0613C81.5215 18.0285 81.468 17.9992 81.4128 17.9699C80.4557 17.4542 79.4934 16.9437 78.531 16.4332C77.2014 15.7279 75.8251 14.9984 74.4851 14.2654C73.0088 13.4583 71.5136 12.627 70.0684 11.8234C67.6384 10.473 65.1256 9.07433 62.6198 7.74983C59.55 6.12525 56.9596 4.87491 54.4624 3.81255C52.2411 2.86746 49.8956 2.10691 47.6278 1.37223L47.0759 1.19287C43.7612 0.116712 40.6017 -0.22476 37.4163 0.14948C34.788 0.458185 32.3167 1.01351 29.8591 1.84822C25.7252 3.25033 21.4275 5.08531 16.721 7.45665C13.5546 9.05191 10.152 10.7713 6.72002 12.5373C4.74707 13.5514 2.97072 14.4689 1.20127 15.4261C0.632153 15.7348 0.232044 16.2349 0.0733799 16.8351C-0.0783857 17.4094 0.0147432 18.0078 0.335521 18.5166C0.968452 19.5237 2.33779 19.9014 3.45189 19.3771C4.75742 18.7615 6.16815 18.0699 7.89103 17.1972C9.52596 16.3694 11.1799 15.5175 12.7786 14.6931C15.4845 13.2979 18.2835 11.8544 21.0653 10.4937C23.3384 9.38131 25.7235 8.34482 28.369 7.31868C30.7456 6.39774 33.2031 5.44575 35.7745 5.04565C36.0849 4.99736 36.3954 4.94562 36.7075 4.89388C37.9372 4.69038 39.2082 4.4817 40.4361 4.4817C42.6333 4.4817 45.0132 4.92147 47.7105 5.82344C48.1486 5.97004 48.5866 6.1149 49.0247 6.25977C51.5443 7.09621 54.1502 7.96024 56.6078 9.00017C59.681 10.3005 62.7681 11.7061 65.7534 13.0668C67.597 13.9067 69.5027 14.7742 71.3877 15.6089C74.0712 16.7971 76.8219 17.9526 79.4847 19.0719L80.7506 19.6031C80.8679 19.6514 80.9955 19.6772 81.1214 19.6755C81.1352 19.6755 81.1473 19.6755 81.1611 19.6738C81.5577 19.6496 81.8854 19.384 81.9785 19.0098C82.0665 18.639 81.9061 18.2596 81.575 18.0613Z" fill="#F1624F" />
    </g>
    <defs>
        <clipPath id="clip0">
            <rect width="82" height="41.1509" fill="white" transform="translate(0 -0.00012207)" />
        </clipPath>
    </defs>
</svg>